<svg width="48" height="42" viewBox="0 0 48 42" fill="none" xmlns="http://www.w3.org/2000/svg">
<g filter="url(#filter0_d_3_199)">
<path fill-rule="evenodd" clip-rule="evenodd" d="M11.3333 4C8.38781 4 6 6.49441 6 9.57143V24.4286C6 27.5056 8.38782 30 11.3333 30H32.6667C35.6122 30 38 27.5056 38 24.4286V9.57143C38 6.49441 35.6122 4 32.6667 4H11.3333ZM14.9995 10.8561C14.3095 10.2954 13.3026 10.4091 12.7506 11.1099C12.1986 11.8107 12.3105 12.8333 13.0005 13.3939L21.0005 19.8939L22 20.706L22.9995 19.8939L30.9995 13.3939C31.6895 12.8333 31.8014 11.8107 31.2494 11.1099C30.6974 10.4091 29.6905 10.2954 29.0005 10.8561L22 16.544L14.9995 10.8561Z" fill="#1E1E1E"/>
</g>
<defs>
<filter id="filter0_d_3_199" x="-2" y="-4" width="52" height="50" filterUnits="userSpaceOnUse" color-interpolation-filters="sRGB">
<feFlood flood-opacity="0" result="BackgroundImageFix"/>
<feColorMatrix in="SourceAlpha" type="matrix" values="0 0 0 0 0 0 0 0 0 0 0 0 0 0 0 0 0 0 127 0" result="hardAlpha"/>
<feOffset dx="2" dy="4"/>
<feGaussianBlur stdDeviation="4"/>
<feComposite in2="hardAlpha" operator="out"/>
<feColorMatrix type="matrix" values="0 0 0 0 0 0 0 0 0 0 0 0 0 0 0 0 0 0 0.25 0"/>
<feBlend mode="normal" in2="BackgroundImageFix" result="effect1_dropShadow_3_199"/>
<feBlend mode="normal" in="SourceGraphic" in2="effect1_dropShadow_3_199" result="shape"/>
</filter>
</defs>
</svg>
