<svg width="50" height="47" viewBox="0 0 50 47" fill="none" xmlns="http://www.w3.org/2000/svg">
<g filter="url(#filter0_d_10_43)">
<path fill-rule="evenodd" clip-rule="evenodd" d="M23 27.8431C27.9705 27.8431 32 24.0755 32 19.4279C32 14.7803 27.9705 11.0127 23 11.0127C18.0294 11.0127 14 14.7803 14 19.4279C14 24.0755 18.0294 27.8431 23 27.8431ZM23 25.0381C26.3137 25.0381 29 22.5263 29 19.4279C29 16.3295 26.3137 13.8178 23 13.8178C19.6863 13.8178 17 16.3295 17 19.4279C17 22.5263 19.6863 25.0381 23 25.0381Z" fill="#1E1E1E"/>
<path d="M32 9.61035C31.1715 9.61035 30.5 10.2387 30.5 11.0137C30.5 11.7888 31.1715 12.4171 32 12.4171C32.8284 12.4171 33.5 11.7888 33.5 11.0137C33.5 10.2387 32.8284 9.61035 32 9.61035Z" fill="#1E1E1E"/>
<path fill-rule="evenodd" clip-rule="evenodd" d="M7.48094 8.5948C6.5 10.3949 6.5 12.7514 6.5 17.4644V21.3915C6.5 26.1044 6.5 28.461 7.48094 30.261C8.3438 31.8444 9.72062 33.1318 11.4141 33.9386C13.3393 34.8558 15.8595 34.8558 20.9 34.8558H25.1C30.1404 34.8558 32.6607 34.8558 34.5858 33.9386C36.2794 33.1318 37.6562 31.8444 38.519 30.261C39.5 28.461 39.5 26.1044 39.5 21.3915V17.4644C39.5 12.7514 39.5 10.3949 38.519 8.5948C37.6562 7.01136 36.2794 5.724 34.5858 4.9172C32.6607 4 30.1404 4 25.1 4H20.9C15.8595 4 13.3393 4 11.4141 4.9172C9.72062 5.724 8.3438 7.01136 7.48094 8.5948ZM25.1 6.80507H20.9C18.3303 6.80507 16.5834 6.80726 15.2331 6.91041C13.9179 7.01088 13.2453 7.193 12.7761 7.41654C11.6471 7.95441 10.7292 8.81265 10.154 9.86827C9.91489 10.307 9.72011 10.9359 9.61265 12.1657C9.50234 13.4282 9.5 15.0616 9.5 17.4644V21.3915C9.5 23.7943 9.50234 25.4275 9.61265 26.6901C9.72011 27.92 9.91489 28.5489 10.154 28.9876C10.7292 30.0432 11.6471 30.9014 12.7761 31.4392C13.2453 31.6628 13.9179 31.845 15.2331 31.9454C16.5834 32.0485 18.3303 32.0507 20.9 32.0507H25.1C27.6698 32.0507 29.4165 32.0485 30.7668 31.9454C32.0822 31.845 32.7548 31.6628 33.224 31.4392C34.3529 30.9014 35.2707 30.0432 35.846 28.9876C36.0851 28.5489 36.2799 27.92 36.3874 26.6901C36.4976 25.4275 36.5 23.7943 36.5 21.3915V17.4644C36.5 15.0616 36.4976 13.4282 36.3874 12.1657C36.2799 10.9359 36.0851 10.307 35.846 9.86827C35.2707 8.81265 34.3529 7.95441 33.224 7.41654C32.7548 7.193 32.0822 7.01088 30.7668 6.91041C29.4165 6.80726 27.6698 6.80507 25.1 6.80507Z" fill="#1E1E1E"/>
</g>
<defs>
<filter id="filter0_d_10_43" x="0.5" y="0" width="49" height="46.856" filterUnits="userSpaceOnUse" color-interpolation-filters="sRGB">
<feFlood flood-opacity="0" result="BackgroundImageFix"/>
<feColorMatrix in="SourceAlpha" type="matrix" values="0 0 0 0 0 0 0 0 0 0 0 0 0 0 0 0 0 0 127 0" result="hardAlpha"/>
<feOffset dx="2" dy="4"/>
<feGaussianBlur stdDeviation="4"/>
<feComposite in2="hardAlpha" operator="out"/>
<feColorMatrix type="matrix" values="0 0 0 0 0 0 0 0 0 0 0 0 0 0 0 0 0 0 0.25 0"/>
<feBlend mode="normal" in2="BackgroundImageFix" result="effect1_dropShadow_10_43"/>
<feBlend mode="normal" in="SourceGraphic" in2="effect1_dropShadow_10_43" result="shape"/>
</filter>
</defs>
</svg>
