<svg aria-hidden="true" style="position: absolute; width: 0; height: 0; overflow: hidden;" version="1.1" xmlns="http://www.w3.org/2000/svg" xmlns:xlink="http://www.w3.org/1999/xlink">
<defs>
<symbol id="icon-instagram" viewBox="0 0 34 32">
<path d="M15.66 18.957c-3.384 0-6.128-2.565-6.128-5.729s2.743-5.729 6.128-5.729c3.384 0 6.128 2.565 6.128 5.729s-2.744 5.729-6.128 5.729zM15.66 17.047c2.256 0 4.085-1.71 4.085-3.82s-1.829-3.82-4.085-3.82c-2.256 0-4.085 1.71-4.085 3.82s1.829 3.82 4.085 3.82z"></path>
<path d="M21.787 6.543c-0.564 0-1.021 0.428-1.021 0.955s0.457 0.955 1.021 0.955c0.564 0 1.021-0.428 1.021-0.955s-0.457-0.955-1.021-0.955z"></path>
<path d="M5.093 5.852c0.587-1.078 1.525-1.955 2.678-2.504 1.311-0.624 3.027-0.624 6.459-0.624h2.86c3.432 0 5.148 0 6.458 0.624 1.153 0.549 2.090 1.426 2.678 2.504 0.668 1.226 0.668 2.83 0.668 6.039v2.674c0 3.209 0 4.813-0.668 6.039-0.587 1.078-1.525 1.955-2.678 2.504-1.311 0.624-3.027 0.624-6.458 0.624h-2.86c-3.432 0-5.148 0-6.458-0.624-1.153-0.549-2.090-1.426-2.678-2.504-0.668-1.226-0.668-2.83-0.668-6.039v-2.674c0-3.209 0-4.813 0.668-6.039zM17.089 4.633h-2.86c-1.75 0-2.939 0.002-3.858 0.072-0.895 0.068-1.353 0.192-1.673 0.345-0.769 0.366-1.394 0.951-1.785 1.669-0.163 0.299-0.295 0.727-0.369 1.564-0.075 0.86-0.077 1.972-0.077 3.608v2.674c0 1.636 0.002 2.748 0.077 3.608 0.073 0.837 0.206 1.266 0.369 1.564 0.392 0.719 1.017 1.303 1.785 1.669 0.319 0.152 0.777 0.276 1.673 0.345 0.919 0.070 2.109 0.072 3.858 0.072h2.86c1.75 0 2.939-0.002 3.858-0.072 0.896-0.068 1.354-0.192 1.673-0.345 0.769-0.366 1.393-0.95 1.785-1.669 0.163-0.299 0.295-0.727 0.369-1.564 0.075-0.86 0.077-1.972 0.077-3.608v-2.674c0-1.636-0.002-2.748-0.077-3.608-0.073-0.837-0.206-1.266-0.369-1.564-0.392-0.719-1.017-1.303-1.785-1.669-0.319-0.152-0.777-0.276-1.673-0.345-0.919-0.070-2.109-0.072-3.858-0.072z"></path>
</symbol>
<symbol id="icon-telegram" viewBox="0 0 33 32">
<path d="M15.304 2.783c-2.201 0-4.353 0.61-6.184 1.754s-3.257 2.769-4.099 4.671c-0.842 1.902-1.063 3.994-0.633 6.013s1.49 3.873 3.046 5.329c1.557 1.455 3.54 2.447 5.699 2.848s4.397 0.195 6.431-0.592 3.772-2.121 4.995-3.833c1.223-1.711 1.876-3.724 1.876-5.782 0-2.76-1.173-5.407-3.26-7.359s-4.919-3.048-7.87-3.048zM20.772 9.912l-1.823 8.053c-0.139 0.572-0.501 0.702-1.016 0.442l-2.783-1.925-1.391 1.21c-0.066 0.080-0.15 0.145-0.246 0.19s-0.203 0.069-0.31 0.070l0.195-2.602 5.148-4.358c0.237-0.182 0-0.286-0.334-0.104l-6.317 3.708-2.783-0.807c-0.598-0.169-0.612-0.559 0.125-0.82l10.727-3.903c0.529-0.143 0.974 0.143 0.807 0.846z"></path>
</symbol>
<symbol id="icon-email" viewBox="0 0 37 32">
<path d="M8.635 3.048h16.254c2.244 0 4.063 1.901 4.063 4.245v11.32c0 2.344-1.819 4.245-4.063 4.245h-16.254c-2.244 0-4.063-1.901-4.063-4.245v-11.32c0-2.344 1.819-4.245 4.063-4.245zM11.428 8.271c-0.526-0.427-1.293-0.341-1.713 0.193s-0.335 1.313 0.19 1.74l6.857 5.571 6.857-5.571c0.526-0.427 0.611-1.206 0.19-1.74s-1.188-0.621-1.713-0.193l-5.334 4.334-5.334-4.334z"></path>
</symbol>
</defs>
</svg>
